{
	"asset":{
		"generator":"Khronos glTF Blender I/O v4.4.56",
		"version":"2.0"
	},
	"scene":0,
	"scenes":[
		{
			"name":"Scene",
			"nodes":[
				1
			]
		}
	],
	"nodes":[
		{
			"mesh":0,
			"name":"mesh0",
			"rotation":[
				-0.5,
				-0.5,
				-0.5,
				0.5
			],
			"scale":[
				0.10000002384185791,
				0.10000002384185791,
				0.10000002384185791
			],
			"translation":[
				-15.598875045776367,
				0,
				-20.44308853149414
			]
		},
		{
			"children":[
				0
			],
			"name":"Renderer Node"
		}
	],
	"materials":[
		{
			"name":"Material_0.005",
			"pbrMetallicRoughness":{
				"baseColorFactor":[
					0.6784313917160034,
					0.8470588326454163,
					0.9019607901573181,
					1
				],
				"metallicFactor":0
			}
		}
	],
	"meshes":[
		{
			"name":"mesh0.005",
			"primitives":[
				{
					"attributes":{
						"POSITION":0,
						"NORMAL":1,
						"COLOR_0":2
					},
					"indices":3,
					"material":0
				}
			]
		}
	],
	"accessors":[
		{
			"bufferView":0,
			"componentType":5126,
			"count":1143068,
			"max":[
				431,
				286,
				99
			],
			"min":[
				0,
				0,
				0
			],
			"type":"VEC3"
		},
		{
			"bufferView":1,
			"componentType":5126,
			"count":1143068,
			"type":"VEC3"
		},
		{
			"bufferView":2,
			"componentType":5126,
			"count":1143068,
			"type":"VEC3"
		},
		{
			"bufferView":3,
			"componentType":5125,
			"count":2124210,
			"type":"SCALAR"
		}
	],
	"bufferViews":[
		{
			"buffer":0,
			"byteLength":13716816,
			"byteOffset":0,
			"target":34962
		},
		{
			"buffer":0,
			"byteLength":13716816,
			"byteOffset":13716816,
			"target":34962
		},
		{
			"buffer":0,
			"byteLength":13716816,
			"byteOffset":27433632,
			"target":34962
		},
		{
			"buffer":0,
			"byteLength":8496840,
			"byteOffset":41150448,
			"target":34963
		}
	],
	"buffers":[
		{
			"byteLength":49647288,
			"uri":"mg_dendrite.bin"
		}
	]
}
